# xmcd CD database file
#
# Track frame offsets:
#	150
#	18766
#	36222
#	40048
#	71099
#	94605
#	107833
#	130015
#	160889
#	185796
#	198321
#
# Disc length: 2791 seconds
#
# Revision: 0
# Processed by: cddbd v1.5.1PL0 Copyright (c) Steve Scherf et al.
# Submitted via: NeoAudio 9.9.9
#
DISCID=8d0ae50b
DTITLE=Joe Bonamassa - Had To Cry Today
DYEAR=2004
DGENRE=Blues
TTITLE0=Never Make Your Move Too Soon
TTITLE1=Travellin' South
TTITLE2=Junction 61 
TTITLE3=Reconsider Baby 
TTITLE4=Around The Bend 
TTITLE5=Revenge Of The 10 Gallon Hat 
TTITLE6=When She Dances
TTITLE7=Had To Cry Today 
TTITLE8=The River
TTITLE9=When The Sun Goes Down
TTITLE10=Faux Mantini
EXTD=YEAR: 2004
EXTT0=
EXTT1=
EXTT2=
EXTT3=
EXTT4=
EXTT5=
EXTT6=
EXTT7=
EXTT8=
EXTT9=
EXTT10=
PLAYORDER=
